<svg width="55" height="14" viewBox="0 0 55 14" fill="none" xmlns="http://www.w3.org/2000/svg">
<path d="M4.742 0.723999C6.062 0.723999 7.094 1.036 7.838 1.66C8.594 2.284 8.972 3.172 8.972 4.324C8.972 5.452 8.6 6.334 7.856 6.97C7.124 7.594 6.056 7.906 4.652 7.906H2.708V13H0.332V0.723999H4.742ZM2.708 6.088H4.292C5.072 6.088 5.642 5.95 6.002 5.674C6.362 5.386 6.542 4.93 6.542 4.306C6.542 3.73 6.368 3.292 6.02 2.992C5.684 2.68 5.09 2.524 4.238 2.524H2.708V6.088ZM12.5935 2.272C12.5935 2.572 12.4855 2.83 12.2695 3.046C12.0655 3.25 11.8135 3.352 11.5135 3.352C11.2015 3.352 10.9435 3.244 10.7395 3.028C10.5475 2.8 10.4515 2.548 10.4515 2.272C10.4515 1.996 10.5475 1.75 10.7395 1.534C10.9435 1.318 11.2015 1.21 11.5135 1.21C11.8135 1.21 12.0655 1.318 12.2695 1.534C12.4855 1.738 12.5935 1.984 12.5935 2.272ZM12.5755 4.612V13H10.4695V4.612H12.5755ZM21.1657 5.008V6.97C20.7337 6.718 20.3257 6.544 19.9417 6.448C19.5697 6.352 19.2097 6.304 18.8617 6.304C18.1657 6.304 17.5957 6.544 17.1517 7.024C16.7197 7.504 16.5037 8.092 16.5037 8.788C16.5037 9.52 16.7317 10.126 17.1877 10.606C17.6437 11.086 18.2677 11.326 19.0597 11.326C19.4437 11.326 19.8157 11.278 20.1757 11.182C20.5357 11.086 20.9197 10.954 21.3277 10.786V12.658C20.8717 12.826 20.4397 12.952 20.0317 13.036C19.6237 13.12 19.1977 13.162 18.7537 13.162C17.3737 13.162 16.2877 12.754 15.4957 11.938C14.7157 11.122 14.3257 10.102 14.3257 8.878C14.3257 7.558 14.7217 6.49 15.5137 5.674C16.3057 4.858 17.3437 4.45 18.6277 4.45C19.0477 4.45 19.4497 4.492 19.8337 4.576C20.2297 4.66 20.6737 4.804 21.1657 5.008ZM25.5357 2.614H25.6797V4.612H28.3797V6.286H25.6797V9.832C25.6797 10.396 25.7757 10.792 25.9677 11.02C26.1597 11.248 26.4597 11.362 26.8677 11.362C27.2037 11.362 27.5277 11.308 27.8397 11.2C28.1637 11.08 28.4637 10.936 28.7397 10.768V12.568C28.4037 12.76 28.0137 12.904 27.5697 13C27.1257 13.108 26.7237 13.162 26.3637 13.162C25.4277 13.162 24.7257 12.916 24.2577 12.424C23.8017 11.92 23.5737 11.122 23.5737 10.03V6.286H22.1697V5.998L25.5357 2.614ZM32.173 4.612V9.49C32.173 10.21 32.305 10.72 32.569 11.02C32.833 11.32 33.211 11.47 33.703 11.47C34.075 11.47 34.423 11.362 34.747 11.146C35.083 10.93 35.383 10.63 35.647 10.246V4.612H37.753V13H35.647V11.884C35.263 12.304 34.837 12.622 34.369 12.838C33.913 13.054 33.439 13.162 32.947 13.162C31.975 13.162 31.249 12.856 30.769 12.244C30.301 11.62 30.067 10.708 30.067 9.508V4.612H32.173ZM46.4452 5.296L45.4912 7.276C45.2512 7.036 44.9992 6.85 44.7352 6.718C44.4712 6.586 44.2192 6.52 43.9792 6.52C43.5232 6.52 43.1032 6.724 42.7192 7.132C42.3472 7.54 42.1132 8.104 42.0172 8.824V13H39.9112V4.612H42.0172V6.574C42.7972 5.158 43.6432 4.45 44.5552 4.45C44.8792 4.45 45.1972 4.522 45.5092 4.666C45.8212 4.81 46.1332 5.02 46.4452 5.296ZM54.7502 8.824V9.148H48.8642C48.9362 9.844 49.2062 10.408 49.6742 10.84C50.1422 11.26 50.7362 11.47 51.4562 11.47C51.9962 11.47 52.5302 11.386 53.0582 11.218C53.5862 11.05 54.0902 10.816 54.5702 10.516V12.208C54.0302 12.544 53.4782 12.79 52.9142 12.946C52.3622 13.09 51.7562 13.162 51.0962 13.162C49.8122 13.162 48.7622 12.754 47.9462 11.938C47.1302 11.122 46.7222 10.06 46.7222 8.752C46.7222 7.468 47.1062 6.43 47.8742 5.638C48.6542 4.846 49.6682 4.45 50.9162 4.45C52.0322 4.45 52.9502 4.84 53.6702 5.62C54.3902 6.4 54.7502 7.468 54.7502 8.824ZM52.7162 7.996C52.6922 7.384 52.5182 6.904 52.1942 6.556C51.8822 6.208 51.4382 6.034 50.8622 6.034C50.2982 6.034 49.8302 6.22 49.4582 6.592C49.0862 6.952 48.8882 7.42 48.8642 7.996H52.7162Z" fill="black"/>
</svg>
